<svg width="116" height="50" viewBox="0 0 116 50" fill="none" xmlns="http://www.w3.org/2000/svg">
<path d="M2.42076 49.2213C2.20297 49.2274 1.98624 49.1885 1.78386 49.107C1.58149 49.0255 1.39774 48.9032 1.2439 48.7474C1.08818 48.5935 0.965537 48.4089 0.883622 48.205C0.801706 48.0012 0.762274 47.7825 0.767786 47.5626V25.8429C0.759728 25.6201 0.797925 25.3981 0.879922 25.1911C0.961918 24.9842 1.0859 24.7968 1.2439 24.6411C1.39983 24.4889 1.58417 24.3695 1.78621 24.2899C1.98825 24.2103 2.20394 24.172 2.42076 24.1773H16.7644C16.9793 24.1665 17.1942 24.1992 17.3963 24.2736C17.5985 24.3481 17.7838 24.4627 17.9413 24.6106C18.09 24.7584 18.2064 24.936 18.2832 25.1318C18.36 25.3277 18.3954 25.5376 18.3872 25.7481C18.3943 25.9514 18.3581 26.1538 18.2812 26.3419C18.2043 26.5299 18.0884 26.6991 17.9413 26.8381C17.6177 27.1264 17.1955 27.2758 16.7644 27.2545H4.07039V35.0406H13.1869C13.4017 35.031 13.6162 35.0644 13.8181 35.1387C14.0201 35.2131 14.2055 35.327 14.3638 35.4739C14.6477 35.7711 14.8064 36.1679 14.8064 36.5808C14.8064 36.9938 14.6477 37.3906 14.3638 37.6878C14.2055 37.8347 14.0201 37.9486 13.8181 38.0229C13.6162 38.0973 13.4017 38.1307 13.1869 38.1211H4.07039V47.549C4.0759 47.7689 4.03646 47.9876 3.95455 48.1915C3.87263 48.3953 3.74999 48.58 3.59427 48.7339C3.44151 48.8906 3.25858 49.0141 3.05676 49.0968C2.85495 49.1794 2.6385 49.2195 2.42076 49.2146" fill="#285EA2"/>
<path d="M2.42077 50C2.10145 50.0044 1.78453 49.9437 1.48898 49.8216C1.19343 49.6994 0.925333 49.5183 0.700734 49.2891C0.473467 49.0634 0.294124 48.7933 0.173645 48.4953C0.0531656 48.1973 -0.00592426 47.8777 -2.02734e-05 47.5559V25.8429C-0.00710918 25.516 0.0523167 25.1911 0.174581 24.8883C0.296845 24.5856 0.479346 24.3113 0.710793 24.0826C1.17016 23.6383 1.78468 23.3949 2.42077 23.4056H16.7644C17.0775 23.3934 17.3897 23.4447 17.6828 23.5563C17.9759 23.6679 18.2439 23.8377 18.4711 24.0555C18.6917 24.2762 18.8651 24.5403 18.9805 24.8315C19.0958 25.1227 19.1507 25.4347 19.1416 25.7481C19.1537 26.0586 19.1005 26.3682 18.9854 26.6565C18.8704 26.9447 18.6963 27.2051 18.4744 27.4204C18.0043 27.8399 17.3911 28.0584 16.7644 28.0298H4.8382V34.2722H13.1869C13.4998 34.2614 13.8117 34.3132 14.1046 34.4248C14.3975 34.5363 14.6657 34.7054 14.8935 34.9221C15.3276 35.3657 15.571 35.9641 15.571 36.5877C15.571 37.2112 15.3276 37.8097 14.8935 38.2532C14.4313 38.6899 13.8163 38.9237 13.1835 38.9032H4.8382V47.5559C4.84413 47.8785 4.78473 48.1989 4.66366 48.4975C4.54259 48.7962 4.36238 49.0667 4.1341 49.2925C3.91 49.5203 3.64287 49.7003 3.34855 49.8218C3.05423 49.9433 2.73873 50.0039 2.42077 50ZM2.42077 24.9492C2.30247 24.9441 2.18437 24.9634 2.07369 25.0059C1.96301 25.0484 1.86207 25.1132 1.77701 25.1963C1.6939 25.2801 1.62939 25.3808 1.58777 25.4917C1.54615 25.6026 1.52837 25.7212 1.5356 25.8395V47.5525C1.52998 47.6702 1.54919 47.7879 1.59196 47.8976C1.63474 48.0073 1.7001 48.1066 1.78372 48.1889C1.86687 48.273 1.96565 48.3398 2.07438 48.3853C2.18312 48.4309 2.29969 48.4543 2.41741 48.4543C2.53514 48.4543 2.65171 48.4309 2.76045 48.3853C2.86918 48.3398 2.96796 48.273 3.05111 48.1889C3.13569 48.1072 3.20191 48.008 3.24529 47.8982C3.28867 47.7885 3.30821 47.6705 3.30258 47.5525V37.3527H13.1869C13.3034 37.3631 13.4208 37.3488 13.5317 37.311C13.6425 37.2731 13.7443 37.2124 13.8307 37.1327C13.9654 36.9831 14.0401 36.7882 14.0401 36.586C14.0401 36.3838 13.9654 36.1888 13.8307 36.0393C13.7442 35.9611 13.6427 35.9017 13.5325 35.865C13.4223 35.8283 13.3058 35.815 13.1903 35.826H3.30258V26.4794H16.7644C16.8845 26.4936 17.0063 26.4823 17.1218 26.4462C17.2373 26.41 17.344 26.3498 17.435 26.2695C17.5059 26.2039 17.5609 26.1229 17.5957 26.0325C17.6306 25.9421 17.6445 25.8448 17.6362 25.7481C17.6464 25.6427 17.6337 25.5362 17.599 25.4363C17.5642 25.3363 17.5083 25.2452 17.435 25.1693C17.3457 25.0858 17.2394 25.0232 17.1236 24.9857C17.0077 24.9483 16.8851 24.937 16.7644 24.9526L2.42077 24.9492Z" fill="#285EA2"/>
<path d="M33.0427 45.887H25.891V25.843C25.8942 25.6234 25.8537 25.4054 25.7719 25.2019C25.6901 24.9984 25.5687 24.8135 25.4149 24.6582C25.2611 24.5029 25.078 24.3803 24.8764 24.2977C24.6748 24.2152 24.4589 24.1743 24.2414 24.1775C24.0283 24.1739 23.8168 24.2147 23.6201 24.2974C23.4234 24.3801 23.2456 24.5029 23.0981 24.6582C22.9428 24.8124 22.8205 24.9971 22.7386 25.2009C22.6568 25.4046 22.6171 25.6232 22.622 25.843V47.5559C22.6156 47.7745 22.6531 47.9921 22.732 48.1957C22.8109 48.3992 22.9297 48.5846 23.0813 48.7408C23.2305 48.8987 23.4108 49.0234 23.6106 49.1068C23.8104 49.1902 24.0253 49.2304 24.2414 49.2249H33.6798C33.7334 48.839 33.7971 48.4598 33.8609 48.0773C33.4039 47.4316 33.1219 46.6766 33.0427 45.887Z" fill="#285EA2"/>
<path d="M34.3537 50.0001H24.2414C23.922 50.0052 23.6051 49.9439 23.3103 49.8198C23.0155 49.6957 22.7492 49.5117 22.528 49.279C22.0875 48.8169 21.8464 48.1973 21.8575 47.5559V25.843C21.8537 25.5212 21.9142 25.2019 22.0351 24.9042C22.1561 24.6064 22.3351 24.3363 22.5616 24.1098C23.0176 23.6633 23.6279 23.4136 24.2632 23.4136C24.8984 23.4136 25.5087 23.6633 25.9648 24.1098C26.1908 24.3364 26.3693 24.6067 26.4897 24.9045C26.6101 25.2022 26.6699 25.5214 26.6655 25.843V45.1118H33.7301L33.8038 45.7888C33.8686 46.443 34.0996 47.0692 34.4744 47.6067L34.6689 47.8742L34.6119 48.2127C34.5482 48.5817 34.4878 48.9541 34.4375 49.3264L34.3537 50.0001ZM24.2414 24.9493C24.1292 24.9463 24.0177 24.9673 23.9142 25.0111C23.8108 25.0549 23.7177 25.1204 23.6412 25.2032C23.5572 25.2853 23.4913 25.3845 23.4479 25.4942C23.4046 25.6039 23.3848 25.7216 23.3897 25.8396V47.5526C23.3844 47.6707 23.403 47.7888 23.4445 47.8994C23.4861 48.01 23.5496 48.1109 23.6311 48.1958C23.709 48.2792 23.8039 48.3446 23.9093 48.3873C24.0146 48.43 24.128 48.4489 24.2414 48.4429H33.0192C33.0192 48.3786 33.0427 48.3142 33.0528 48.2499C32.7431 47.7609 32.5165 47.2232 32.3822 46.6589H25.1232V25.843C25.1264 25.7252 25.1058 25.608 25.0627 25.4985C25.0195 25.389 24.9546 25.2895 24.8721 25.2062C24.7896 25.1229 24.6911 25.0574 24.5826 25.0138C24.4742 24.9702 24.3581 24.9494 24.2414 24.9527" fill="#285EA2"/>
<path d="M42.0285 49.2213C41.7532 49.2311 41.4805 49.1648 41.2399 49.0293C40.9994 48.8938 40.8002 48.6945 40.6638 48.4528C40.5076 48.2126 40.4164 47.9352 40.3993 47.6484C40.3823 47.3615 40.4399 47.0751 40.5666 46.8178L49.492 25.2978C49.5993 24.9674 49.8086 24.6804 50.0891 24.4788C50.3697 24.2772 50.7068 24.1715 51.0511 24.1773C51.3975 24.1597 51.7397 24.2608 52.0221 24.4642C52.3045 24.6676 52.5105 24.9613 52.6068 25.2978L61.5624 46.8821C61.6796 47.1396 61.7309 47.4227 61.7116 47.7054C61.6922 47.9881 61.6029 48.2614 61.4518 48.5002C61.3059 48.7337 61.101 48.9236 60.8582 49.0503C60.6153 49.1771 60.3434 49.2361 60.0704 49.2213C59.749 49.2216 59.4344 49.1275 59.1651 48.9505C58.8833 48.7727 58.6658 48.508 58.5448 48.1955L50.6689 28.4359H51.5574L43.554 48.1955C43.4251 48.5168 43.197 48.7874 42.9036 48.9674C42.6398 49.13 42.3375 49.2177 42.0285 49.2213ZM43.7049 43.7067L44.9756 40.9477H57.435L58.7057 43.7067H43.7049Z" fill="#285EA2"/>
<path d="M60.0704 49.9999C59.604 49.999 59.1478 49.8626 58.756 49.6072C58.3378 49.343 58.0146 48.9502 57.834 48.4867L56.238 44.4819H45.8876L44.2581 48.49C44.0638 48.9657 43.7244 49.3665 43.2892 49.6343C42.9073 49.8697 42.4692 49.9961 42.0218 49.9999C41.6169 50.0082 41.2171 49.9076 40.8636 49.7083C40.51 49.509 40.2154 49.2182 40.01 48.8658C39.7867 48.5165 39.6562 48.115 39.6309 47.7C39.6057 47.285 39.6866 46.8704 39.8659 46.4961L48.7845 24.9931C48.9515 24.5223 49.2593 24.1155 49.6654 23.8293C50.0716 23.543 50.5558 23.3913 51.0511 23.3953C51.5541 23.3788 52.0486 23.5286 52.4596 23.8219C52.8705 24.1152 53.1753 24.5359 53.3277 25.0202L62.2699 46.574C62.4352 46.9478 62.5061 47.3571 62.4763 47.7654C62.4465 48.1736 62.3168 48.568 62.0989 48.9132C61.8839 49.2566 61.5834 49.5371 61.2274 49.7266C60.8715 49.9161 60.4725 50.008 60.0704 49.9931V49.9999ZM57.8943 44.4752L59.2556 47.901C59.3225 48.0633 59.4403 48.1988 59.5909 48.2869C59.738 48.3857 59.9105 48.4386 60.0871 48.4393C60.2317 48.4547 60.3777 48.4286 60.5082 48.3639C60.6387 48.2992 60.7485 48.1986 60.8248 48.0737C60.9101 47.9382 60.9587 47.7825 60.9658 47.6221C60.9729 47.4617 60.9381 47.3022 60.865 47.1596L59.7518 44.4752H57.8943ZM51.0511 24.9525C50.7527 24.9525 50.4409 25.0303 50.1995 25.6024L41.2741 47.119C41.1966 47.2615 41.1593 47.4227 41.1664 47.5851C41.1735 47.7475 41.2247 47.9048 41.3143 48.0398C41.3816 48.1701 41.4849 48.2778 41.6117 48.35C41.7384 48.4221 41.8832 48.4555 42.0285 48.446C42.2 48.4425 42.3671 48.391 42.5113 48.2971C42.665 48.202 42.783 48.0578 42.8466 47.8875L44.2246 44.4819H42.5046L44.4895 40.1725H45.9715L50.2933 29.5462L49.5456 27.6641H52.7141L51.953 29.5496L56.1877 40.1725H57.9379L58.1626 40.6634L51.9128 25.5991C51.8727 25.4059 51.7647 25.234 51.6088 25.1151C51.4528 24.9963 51.2594 24.9385 51.0645 24.9525H51.0511ZM57.2875 42.9315H57.5121L56.9589 41.7263H56.8047L57.2875 42.9315ZM46.528 42.9315H55.6311L55.1483 41.7263H47.0042L46.528 42.9315ZM47.6479 40.1725H54.518L51.1047 31.6112L47.6479 40.1725Z" fill="#285EA2"/>
<path d="M66.9941 49.2213C66.7766 49.224 66.5607 49.1828 66.3591 49.1001C66.1576 49.0174 65.9744 48.8949 65.8205 48.7397C65.6665 48.5846 65.5447 48.3999 65.4624 48.1966C65.3801 47.9933 65.3389 47.7754 65.3411 47.5558V25.8428C65.3335 25.6198 65.3722 25.3977 65.4548 25.1907C65.5374 24.9837 65.662 24.7965 65.8206 24.6411C65.9757 24.4887 66.1594 24.3691 66.3609 24.2895C66.5625 24.2098 66.7777 24.1717 66.9941 24.1773C67.297 24.1713 67.5953 24.2525 67.8541 24.4114C68.113 24.5702 68.3217 24.8002 68.456 25.0744L78.3973 45.1827H77.3914L87.0779 25.0744C87.2107 24.8041 87.4159 24.5768 87.6701 24.4183C87.9243 24.2597 88.2175 24.1762 88.5163 24.1773C88.7331 24.172 88.9488 24.2103 89.1509 24.2899C89.3529 24.3695 89.5373 24.4889 89.6932 24.6411C89.8549 24.7951 89.9829 24.9816 90.069 25.1886C90.155 25.3955 90.1972 25.6184 90.1928 25.8428V47.5558C90.1976 47.7771 90.1562 47.997 90.0712 48.2011C89.9863 48.4053 89.8598 48.5891 89.6999 48.7406C89.5455 48.8979 89.3608 49.0217 89.1573 49.1044C88.9538 49.1871 88.7356 49.2268 88.5163 49.2213C88.2988 49.224 88.0829 49.1828 87.8814 49.1001C87.6798 49.0174 87.4967 48.8949 87.3427 48.7397C87.1887 48.5846 87.067 48.3999 86.9846 48.1966C86.9023 47.9933 86.8611 47.7754 86.8633 47.5558V30.4671L87.5004 30.3046L79.1919 47.4271C79.0474 47.6805 78.8393 47.8909 78.5885 48.0371C78.3377 48.1833 78.0532 48.2602 77.7636 48.2599C77.4395 48.271 77.1198 48.182 76.8472 48.0048C76.5746 47.8275 76.3621 47.5705 76.238 47.268L68.01 30.6228L68.6471 30.4637V47.5558C68.6502 47.7757 68.6096 47.9939 68.5276 48.1977C68.4457 48.4014 68.324 48.5865 68.1698 48.7418C68.0156 48.8972 67.8321 49.0197 67.6301 49.102C67.4282 49.1844 67.2119 49.2249 66.9941 49.2213Z" fill="#285EA2"/>
<path d="M88.5163 50C88.1975 50.0032 87.8813 49.9421 87.5862 49.8204C87.2911 49.6987 87.023 49.5188 86.7976 49.2912C86.5722 49.0636 86.394 48.7929 86.2734 48.4949C86.1529 48.197 86.0924 47.8777 86.0955 47.5559V34.9526L79.8692 47.7691C79.6587 48.1518 79.3512 48.471 78.9783 48.694C78.6053 48.9171 78.1803 49.036 77.7468 49.0386C77.2786 49.0501 76.8176 48.9199 76.4232 48.6647C76.0289 48.4095 75.7191 48.041 75.5339 47.6067L69.4048 35.2065V47.5626C69.4088 47.885 69.3485 48.2049 69.2276 48.5032C69.1066 48.8015 68.9275 49.0723 68.7007 49.2993C68.2375 49.7449 67.6222 49.9934 66.9824 49.9934C66.3426 49.9934 65.7273 49.7449 65.264 49.2993C65.0382 49.0725 64.8598 48.8022 64.7394 48.5045C64.619 48.2067 64.5591 47.8876 64.5633 47.566V25.8429C64.557 25.5161 64.6168 25.1915 64.739 24.8888C64.8612 24.5861 65.0433 24.3118 65.2741 24.0826C65.734 23.6392 66.3482 23.396 66.9841 23.4056C67.4225 23.3977 67.8544 23.5141 68.2307 23.7415C68.607 23.9688 68.9127 24.2981 69.1131 24.6919L77.8642 42.39L86.3671 24.7393C86.5645 24.3349 86.8709 23.9949 87.2511 23.7584C87.6312 23.5219 88.0698 23.3984 88.5163 23.4022C89.1523 23.3919 89.7667 23.6352 90.2263 24.0792C90.4577 24.3079 90.6402 24.5822 90.7625 24.885C90.8848 25.1877 90.9442 25.5126 90.9371 25.8395V47.5525C90.9409 47.878 90.8783 48.2007 90.7531 48.5007C90.6279 48.8006 90.4429 49.0713 90.2095 49.2959C89.9894 49.5181 89.728 49.6944 89.4403 49.8146C89.1527 49.9349 88.8444 49.9967 88.5331 49.9966L88.5163 50ZM87.6446 31.7908V47.5559C87.6396 47.6739 87.6594 47.7916 87.7028 47.9013C87.7461 48.011 87.812 48.1102 87.896 48.1923C87.9777 48.2779 88.0756 48.346 88.1839 48.3925C88.2922 48.439 88.4087 48.463 88.5264 48.463C88.6441 48.463 88.7606 48.439 88.8689 48.3925C88.9772 48.346 89.0751 48.2779 89.1567 48.1923C89.242 48.1122 89.3092 48.0145 89.3537 47.9059C89.3983 47.7972 89.4191 47.6802 89.4149 47.5626V25.8429C89.4222 25.7238 89.4041 25.6044 89.3619 25.4929C89.3197 25.3813 89.2543 25.2802 89.1701 25.1963C89.0853 25.114 88.9848 25.05 88.8747 25.0081C88.7646 24.9662 88.6473 24.9473 88.5297 24.9526C88.3628 24.9484 88.1984 24.994 88.057 25.0837C87.9157 25.1735 87.8037 25.3033 87.7351 25.457L78.7393 44.1368L79.3462 45.3622L86.1089 31.432V29.8578L88.9321 29.1469L87.6446 31.7908ZM66.9941 24.9526C66.8763 24.9472 66.7586 24.9663 66.6484 25.0088C66.5382 25.0513 66.4379 25.1163 66.3537 25.1997C66.2695 25.2828 66.204 25.3833 66.1617 25.4943C66.1195 25.6053 66.1015 25.7242 66.109 25.8429V47.5559C66.104 47.6739 66.1238 47.7916 66.1672 47.9013C66.2105 48.011 66.2764 48.1102 66.3604 48.1923C66.5282 48.3612 66.7555 48.456 66.9924 48.456C67.2294 48.456 67.4567 48.3612 67.6245 48.1923C67.7096 48.1101 67.7763 48.0105 67.8202 47.9002C67.8642 47.7898 67.8843 47.6713 67.8793 47.5525V32.0887L66.8969 30.1049L69.4048 29.4719V31.7231L76.2883 45.6534L77.0159 44.1469L67.7686 25.4198C67.6995 25.2735 67.5891 25.1512 67.4513 25.0681C67.3135 24.985 67.1544 24.9448 66.9941 24.9526ZM76.4459 45.958L76.922 46.9195C76.9815 47.0925 77.0951 47.2412 77.2457 47.3432C77.3964 47.4452 77.5758 47.4949 77.7569 47.4848C77.9204 47.4868 78.0812 47.4425 78.2211 47.357C78.3609 47.2714 78.4743 47.148 78.5482 47.0007L79.0511 45.958H76.4459Z" fill="#285EA2"/>
<path d="M95.5574 49.2213C95.2817 49.2306 95.0088 49.1641 94.7678 49.0287C94.5268 48.8933 94.3268 48.6942 94.1894 48.4528C94.0346 48.2119 93.9446 47.9345 93.9281 47.6478C93.9117 47.3612 93.9694 47.0751 94.0955 46.8178L103.021 25.2978C103.128 24.9677 103.336 24.6808 103.616 24.4791C103.896 24.2775 104.233 24.1717 104.577 24.1773C104.923 24.1597 105.265 24.2608 105.548 24.4642C105.83 24.6676 106.036 24.9613 106.132 25.2978L115.091 46.8821C115.209 47.1396 115.26 47.4227 115.241 47.7054C115.221 47.9881 115.132 48.2614 114.981 48.5002C114.835 48.7337 114.63 48.9236 114.387 49.0503C114.144 49.1771 113.872 49.2361 113.599 49.2213C113.278 49.2216 112.963 49.1275 112.694 48.9505C112.411 48.7738 112.194 48.5087 112.074 48.1955L104.188 28.4359H105.08L97.0729 48.1888C96.945 48.5106 96.7166 48.7816 96.4224 48.9606C96.1599 49.1233 95.8587 49.211 95.5507 49.2145L95.5574 49.2213ZM97.2271 43.6999L98.4979 40.941H110.947L112.218 43.6999H97.2271Z" fill="#285EA2"/>
<path d="M113.593 49.9999C113.126 49.9991 112.67 49.8627 112.278 49.6073C111.859 49.3433 111.535 48.9505 111.353 48.4867L109.757 44.482H99.4099L97.7837 48.4901C97.5904 48.9665 97.2507 49.3675 96.8147 49.6343C96.4362 49.869 96.0016 49.9954 95.5574 49.9999C95.1525 50.0083 94.7528 49.9077 94.3992 49.7084C94.0456 49.5091 93.751 49.2183 93.5457 48.8659C93.3227 48.5165 93.1921 48.1153 93.1663 47.7004C93.1405 47.2856 93.2203 46.8711 93.3981 46.4962L102.32 24.9932C102.487 24.5226 102.794 24.116 103.199 23.8297C103.605 23.5434 104.089 23.3916 104.583 23.3954C105.086 23.3783 105.581 23.5279 105.992 23.8213C106.403 24.1146 106.708 24.5357 106.86 25.0203L115.806 46.5741C115.97 46.948 116.041 47.3572 116.011 47.7654C115.981 48.1735 115.852 48.5679 115.635 48.9133C115.421 49.2542 115.123 49.533 114.77 49.7224C114.418 49.9117 114.022 50.0051 113.623 49.9932L113.593 49.9999ZM111.443 44.4752L112.808 47.9011C112.869 48.0615 112.981 48.1971 113.127 48.287C113.273 48.3861 113.446 48.4391 113.623 48.4393C113.763 48.45 113.904 48.4212 114.03 48.3561C114.155 48.291 114.26 48.1921 114.334 48.0704C114.42 47.9353 114.469 47.7797 114.477 47.6193C114.484 47.4588 114.45 47.2991 114.377 47.1563L113.261 44.4718L111.443 44.4752ZM104.57 24.9526C104.272 24.9526 103.963 25.0304 103.722 25.6025L94.7963 47.1191C94.7177 47.2612 94.6798 47.4226 94.6869 47.5853C94.694 47.7479 94.7458 47.9053 94.8365 48.0399C94.9038 48.1702 95.0071 48.2779 95.1339 48.35C95.2607 48.4222 95.4055 48.4555 95.5507 48.4461C95.7222 48.4426 95.8894 48.391 96.0335 48.2972C96.1867 48.2015 96.3046 48.0575 96.3688 47.8876L97.7502 44.482H96.0268L98.0151 40.1726H99.4937L103.802 29.5463L103.051 27.6641H106.223L105.458 29.5497L109.697 40.1726H111.447L111.661 40.6398L105.418 25.5991C105.379 25.4057 105.271 25.2333 105.115 25.1143C104.959 24.9953 104.765 24.9378 104.57 24.9526ZM110.796 42.9316H111.021L110.464 41.7264H110.31L110.796 42.9316ZM100.037 42.9316H109.14L108.657 41.7264H100.526L100.037 42.9316ZM101.153 40.1726H108.04L104.61 31.6113L101.153 40.1726Z" fill="#285EA2"/>
<path d="M35.7921 46.3508C35.6925 46.2025 35.5586 46.081 35.4021 45.9966C35.2455 45.9123 35.071 45.8677 34.8935 45.8667H31.3931C31.3931 46.8281 31.4199 47.7895 31.497 48.7238C31.497 48.8999 31.497 49.0624 31.497 49.2249H34.8767C35.0542 49.2239 35.2287 49.1793 35.3853 49.0949C35.5419 49.0106 35.6757 48.889 35.7753 48.7408C36.0113 48.3878 36.1374 47.9716 36.1374 47.5458C36.1374 47.1199 36.0113 46.7038 35.7753 46.3508" fill="#285EA2"/>
<path d="M34.8935 49.9999H30.7527V49.2348C30.7527 49.0487 30.7527 48.9234 30.7527 48.7914C30.6722 47.8198 30.6554 46.8178 30.6454 45.8767V45.0913H34.9203C35.2163 45.0917 35.5078 45.1638 35.7704 45.3017C36.0329 45.4395 36.2589 45.6391 36.4291 45.8835C36.7665 46.3708 36.9475 46.951 36.9475 47.5456C36.9475 48.1402 36.7665 48.7204 36.4291 49.2078C36.2591 49.4524 36.0332 49.652 35.7706 49.7899C35.5079 49.9278 35.2163 49.9998 34.9203 49.9999H34.8935ZM32.2715 48.4495H34.9203C34.9773 48.4495 35.0745 48.4495 35.2053 48.2734C35.3532 48.0611 35.4264 47.8049 35.4132 47.5456C35.427 47.2873 35.3537 47.032 35.2053 46.8212C35.0745 46.6417 34.9773 46.6417 34.9203 46.6417H32.1877C32.1877 47.2443 32.2179 47.8571 32.2581 48.4495" fill="#285EA2"/>
<path d="M36.352 4.67502C38.488 2.30339 41.3072 0.668242 44.4124 0C45.7051 2.24625 46.5695 4.71726 46.9606 7.28504C47.2187 8.99797 47.9295 15.1862 44.1307 21.3169C42.0472 24.6474 39.0677 27.3104 35.5406 28.9946C38.0035 26.7146 39.8734 23.8583 40.9857 20.677C43.3327 13.9066 41.321 8.02979 40.6504 6.28639C39.4994 6.66842 38.3957 7.18297 37.3612 7.8199C35.5488 8.95087 33.9781 10.4355 32.7409 12.1869C33.23 9.39581 34.4805 6.79786 36.352 4.68517" fill="#1C75BB"/>
<path d="M33.6966 28.9606C35.5952 26.3368 36.754 23.2424 37.0495 20.0067C37.1321 19.0527 37.1321 18.0933 37.0495 17.1394C35.3731 17.7766 33.9566 18.9625 33.026 20.5077C32.9248 19.3189 33.0725 18.1219 33.4595 16.9945C33.8466 15.8671 34.4642 14.8346 35.2724 13.964C36.4056 12.7463 37.8504 11.8688 39.4468 11.4285C40.2849 14.2765 40.3336 17.3019 39.5876 20.1759C38.6408 23.6817 36.569 26.7713 33.6966 28.9606Z" fill="#105494"/>
</svg>
