<svg width="13" height="23" viewBox="0 0 13 23" fill="none" xmlns="http://www.w3.org/2000/svg">
<path fill-rule="evenodd" clip-rule="evenodd" d="M0.479435 19.3246L8.79173 11.0123L0.479435 2.70002C0.329443 2.55516 0.209803 2.38187 0.127498 2.19027C0.0451936 1.99867 0.00187128 1.7926 5.92927e-05 1.58408C-0.0017527 1.37556 0.037983 1.16876 0.116946 0.975763C0.195908 0.782762 0.312518 0.60742 0.45997 0.459968C0.607422 0.312516 0.782763 0.195907 0.975763 0.116944C1.16876 0.0379816 1.37556 -0.00175269 1.58408 5.92949e-05C1.7926 0.00187128 1.99867 0.0451937 2.19027 0.127498C2.38187 0.209803 2.55516 0.329442 2.70002 0.479434L12.1226 9.90202C12.417 10.1965 12.5824 10.5959 12.5824 11.0123C12.5824 11.4287 12.417 11.8281 12.1226 12.1226L2.70002 21.5452C2.55516 21.6952 2.38187 21.8148 2.19027 21.8971C1.99867 21.9794 1.7926 22.0228 1.58408 22.0246C1.37556 22.0264 1.16876 21.9867 0.975763 21.9077C0.782763 21.8287 0.607422 21.7121 0.45997 21.5647C0.312518 21.4172 0.195908 21.2419 0.116946 21.0489C0.037983 20.8559 -0.0017527 20.6491 5.92927e-05 20.4406C0.00187128 20.232 0.0451936 20.026 0.127498 19.8344C0.209803 19.6428 0.329443 19.4695 0.479435 19.3246V19.3246Z" fill="#0079C2"/>
</svg>
